# xmcd
# 
# Track frame offsets:
#     150
#     17733
#     31213
#     46960
#     67475
#     82948
#     95658
#     109928
#     122788
#     142870
#     146880
#     159508
#     177853
#     193218
#     209160
#     222533
#     233018
#     243485
#     258288
#     272510
#     286075
#     299325
#     310768
#     320650
#     327250
#     339465
# 
# Disc length: 4647
# 
# Revision: 2
# Processed by: cddbd v1.5.2PL0 Copyright (c) Steve Scherf et al.
# Submitted via: fre:ac v1.1beta1pre4
# 
DISCID=9512251a
DTITLE=Various Artist - The Soul Of Chicago
DYEAR=1993
DGENRE=Gospel
TTITLE0=Golden Harps, The - Golden Bells
TTITLE1=Patterson, Rev. Sammy - This Train
TTITLE2=Campbell, Delois Barrett - Learning And Depending
TTITLE3=Gay Sisters, The - Gay, Donald - God Will Take Care Of You
TTITLE4=Collier, Lucy Smith - In The Storm
TTITLE5=Anderson, Robert - When The Gates Swing Open
TTITLE6=Price, Vernon Oliver - That's What He's Done For Me
TTITLE7=Golden Harps, The - Two Wings
TTITLE8=Gwynn, Irma - I Told Jesus
TTITLE9=Gay, Geraldine - Piano Solo
TTITLE10=Gregory, Gladys Beamon - I've Got A Song
TTITLE11=Smith, Eugene - I'm Sealed
TTITLE12=Folk, Bessie - I Thank You Lord
TTITLE13=Golden Harps, The - Down On Me
TTITLE14=Anderson, Robert - Walk And Talk With Jesus
TTITLE15=Gregory, Gladys Beamon - Nobody's Fault But My Own
TTITLE16=Campbell, Delois Barrett - In The Upper Room
TTITLE17=Patterson, Rev. Sammy - Confidential God
TTITLE18=Price, Vernon Oliver - Stand By Me
TTITLE19=Gwynn, Irma - He Knows My Heart
TTITLE20=Gay, Mildred - Mother's Songs
TTITLE21=Gregory, Gladys Beamon - Royal Telephone
TTITLE22=Collier, Lucy Smith - I Heard The Voice
TTITLE23=Collier, Lucy Smith - Seeking For Me
TTITLE24=Gwynn, Irma - Walk With Me
TTITLE25=Price, Vernon Oliver - Stop Now! It's Praying Time
EXTD=
EXTT0=
EXTT1=
EXTT2=
EXTT3=
EXTT4=
EXTT5=
EXTT6=
EXTT7=
EXTT8=
EXTT9=
EXTT10=
EXTT11=
EXTT12=
EXTT13=
EXTT14=
EXTT15=
EXTT16=
EXTT17=
EXTT18=
EXTT19=
EXTT20=
EXTT21=
EXTT22=
EXTT23=
EXTT24=
EXTT25=
PLAYORDER=
